<?xml version="1.0" encoding="UTF-8" standalone="no"?>
<!DOCTYPE svg PUBLIC "-//W3C//DTD SVG 1.1//EN" "http://www.w3.org/Graphics/SVG/1.1/DTD/svg11.dtd">
<svg xmlns="http://www.w3.org/2000/svg" xmlns:xlink="http://www.w3.org/1999/xlink" width="500" zoomAndPan="magnify" viewBox="0 0 375 374.999991" height="500" preserveAspectRatio="xMidYMid meet" version="1.0" ><defs><g/><clipPath id="c5562a05f0"><path d="M 7.761719 164.179688 L 25.023438 164.179688 L 25.023438 197.683594 L 7.761719 197.683594 Z M 7.761719 164.179688 " clip-rule="nonzero"/></clipPath><clipPath id="2556131af3"><path d="M 302.457031 162.308594 L 319.714844 162.308594 L 319.714844 195.8125 L 302.457031 195.8125 Z M 302.457031 162.308594 " clip-rule="nonzero"/></clipPath></defs><g fill="#000000" fill-opacity="1"><g transform="translate(7.755018, 219.656563)"><g><path d="M 17.25 -51.046875 L 0 -51.046875 L 0 -89.140625 C 0 -89.816406 0.410156 -90.15625 1.234375 -90.15625 L 16 -90.15625 C 16.832031 -90.15625 17.25 -89.816406 17.25 -89.140625 Z M 67.390625 -90.15625 C 68.222656 -90.15625 68.640625 -89.816406 68.640625 -89.140625 L 68.640625 -1.015625 C 68.640625 -0.335938 68.222656 0 67.390625 0 L 52.625 0 C 51.800781 0 51.390625 -0.335938 51.390625 -1.015625 L 51.390625 -16.90625 L 17.25 -16.90625 L 17.25 -1.015625 C 17.25 -0.335938 16.832031 0 16 0 L 1.234375 0 C 0.410156 0 0 -0.335938 0 -1.015625 L 0 -33.8125 L 17.25 -33.8125 L 17.25 -33.703125 L 51.390625 -33.703125 L 51.390625 -89.140625 C 51.390625 -89.816406 51.800781 -90.15625 52.625 -90.15625 Z M 67.390625 -90.15625 "/></g></g></g><g fill="#000000" fill-opacity="1"><g transform="translate(79.884651, 219.656563)"><g><path d="M 70.78125 -1.359375 C 70.925781 -1.054688 70.882812 -0.753906 70.65625 -0.453125 C 70.4375 -0.148438 70.140625 0 69.765625 0 L 54.203125 0 C 53.679688 0 53.347656 -0.222656 53.203125 -0.671875 L 35.390625 -50.9375 L 17.8125 -0.671875 C 17.726562 -0.222656 17.351562 0 16.6875 0 L 1.234375 0 C 0.710938 0 0.359375 -0.148438 0.171875 -0.453125 C -0.015625 -0.753906 -0.0351562 -1.054688 0.109375 -1.359375 L 34.265625 -89.484375 C 34.410156 -89.929688 34.785156 -90.15625 35.390625 -90.15625 C 35.992188 -90.15625 36.367188 -89.929688 36.515625 -89.484375 Z M 70.78125 -1.359375 "/></g></g></g><g fill="#000000" fill-opacity="1"><g transform="translate(154.268342, 219.656563)"><g><path d="M 51.5 -16.5625 L 68.75 -16.5625 L 68.75 -1.015625 C 68.75 -0.335938 68.335938 0 67.515625 0 L 52.859375 0 C 48.347656 0 43.648438 -0.335938 38.765625 -1.015625 C 33.878906 -1.691406 29.144531 -2.945312 24.5625 -4.78125 C 19.976562 -6.625 15.828125 -9.21875 12.109375 -12.5625 C 8.390625 -15.90625 5.441406 -20.222656 3.265625 -25.515625 C 1.085938 -30.816406 0 -37.335938 0 -45.078125 C 0 -53.046875 1.109375 -59.734375 3.328125 -65.140625 C 5.546875 -70.546875 8.515625 -74.898438 12.234375 -78.203125 C 15.953125 -81.515625 20.117188 -84.035156 24.734375 -85.765625 C 29.359375 -87.492188 34.09375 -88.65625 38.9375 -89.25 C 43.78125 -89.851562 48.421875 -90.15625 52.859375 -90.15625 L 67.515625 -90.15625 C 68.335938 -90.15625 68.75 -89.816406 68.75 -89.140625 L 68.75 -53.765625 L 51.5 -53.765625 L 51.5 -73.703125 C 44.96875 -74.078125 39.128906 -73.34375 33.984375 -71.5 C 28.835938 -69.664062 24.78125 -66.585938 21.8125 -62.265625 C 18.84375 -57.941406 17.359375 -52.210938 17.359375 -45.078125 C 17.359375 -39.515625 18.164062 -34.929688 19.78125 -31.328125 C 21.394531 -27.722656 23.535156 -24.90625 26.203125 -22.875 C 28.867188 -20.84375 31.742188 -19.359375 34.828125 -18.421875 C 37.910156 -17.484375 40.914062 -16.921875 43.84375 -16.734375 C 46.769531 -16.546875 49.320312 -16.488281 51.5 -16.5625 Z M 51.5 -16.5625 "/></g></g></g><g fill="#000000" fill-opacity="1"><g transform="translate(226.51068, 219.656563)"><g><path d="M 71.90625 -1.6875 C 72.28125 -1.238281 72.351562 -0.84375 72.125 -0.5 C 71.90625 -0.164062 71.492188 0 70.890625 0 L 51.5 0 C 51.050781 0 50.710938 -0.113281 50.484375 -0.34375 L 24.234375 -32.796875 C 23.859375 -32.421875 23.007812 -31.5 21.6875 -30.03125 C 20.375 -28.570312 18.796875 -26.804688 16.953125 -24.734375 C 15.117188 -22.671875 13.222656 -20.53125 11.265625 -18.3125 C 9.316406 -16.09375 7.476562 -14.003906 5.75 -12.046875 C 4.019531 -10.097656 2.628906 -8.519531 1.578125 -7.3125 C 0.523438 -6.113281 0 -5.515625 0 -5.515625 L 0 -89.140625 C 0 -89.816406 0.410156 -90.15625 1.234375 -90.15625 L 16.109375 -90.15625 C 16.867188 -90.15625 17.25 -89.816406 17.25 -89.140625 L 17.25 -48.125 L 51.171875 -89.828125 C 51.390625 -90.046875 51.726562 -90.15625 52.1875 -90.15625 L 70.546875 -90.15625 C 71.148438 -90.15625 71.5625 -89.96875 71.78125 -89.59375 C 72.007812 -89.21875 71.9375 -88.84375 71.5625 -88.46875 L 35.734375 -44.296875 Z M 71.90625 -1.6875 "/></g></g></g><g fill="#000000" fill-opacity="1"><g transform="translate(302.359509, 219.656563)"><g><path d="M 16 -90.15625 C 20.363281 -90.15625 24.984375 -89.851562 29.859375 -89.25 C 34.742188 -88.65625 39.476562 -87.492188 44.0625 -85.765625 C 48.644531 -84.035156 52.796875 -81.515625 56.515625 -78.203125 C 60.234375 -74.898438 63.203125 -70.5625 65.421875 -65.1875 C 67.640625 -59.820312 68.75 -53.117188 68.75 -45.078125 C 68.75 -37.335938 67.660156 -30.816406 65.484375 -25.515625 C 63.304688 -20.222656 60.375 -15.90625 56.6875 -12.5625 C 53.007812 -9.21875 48.859375 -6.625 44.234375 -4.78125 C 39.617188 -2.945312 34.882812 -1.691406 30.03125 -1.015625 C 25.1875 -0.335938 20.507812 0 16 0 L 1.234375 0 C 0.410156 0 0 -0.335938 0 -1.015625 L 0 -36.40625 L 17.25 -36.40625 L 17.25 -16.5625 C 19.425781 -16.488281 21.976562 -16.546875 24.90625 -16.734375 C 27.832031 -16.921875 30.835938 -17.484375 33.921875 -18.421875 C 37.003906 -19.359375 39.878906 -20.84375 42.546875 -22.875 C 45.210938 -24.90625 47.351562 -27.722656 48.96875 -31.328125 C 50.582031 -34.929688 51.390625 -39.515625 51.390625 -45.078125 C 51.390625 -52.210938 49.90625 -57.941406 46.9375 -62.265625 C 43.96875 -66.585938 39.910156 -69.664062 34.765625 -71.5 C 29.617188 -73.34375 23.78125 -74.078125 17.25 -73.703125 L 17.25 -53.765625 L 0 -53.765625 L 0 -89.140625 C 0 -89.816406 0.410156 -90.15625 1.234375 -90.15625 Z M 16 -90.15625 "/></g></g></g><g clip-path="url(#c5562a05f0)"><path fill="#000000" d="M 7.761719 164.179688 L 25.023438 164.179688 L 25.023438 197.6875 L 7.761719 197.6875 Z M 7.761719 164.179688 " fill-opacity="1" fill-rule="nonzero"/></g><g clip-path="url(#2556131af3)"><path fill="#000000" d="M 302.457031 162.308594 L 319.714844 162.308594 L 319.714844 195.816406 L 302.457031 195.816406 Z M 302.457031 162.308594 " fill-opacity="1" fill-rule="nonzero"/></g></svg>
